<?xml version="1.0" standalone="no"?>
<!DOCTYPE svg PUBLIC "-//W3C//DTD SVG 20010904//EN"
 "http://www.w3.org/TR/2001/REC-SVG-20010904/DTD/svg10.dtd">
<svg version="1.0" xmlns="http://www.w3.org/2000/svg"
 width="304.000000pt" height="356.000000pt" viewBox="0 0 304.000000 356.000000"
 preserveAspectRatio="xMidYMid meet">

<g transform="translate(0.000000,356.000000) scale(0.100000,-0.100000)"
fill="#000000" stroke="none">
<path d="M0 1780 l0 -1780 1520 0 1520 0 0 1780 0 1780 -1520 0 -1520 0 0
-1780z m320 331 c0 -1219 -1 -1260 -19 -1266 -10 -3 -26 -3 -35 1 -15 6 -16
107 -16 1258 0 689 3 1256 7 1259 3 4 19 7 35 7 l28 0 0 -1259z m320 1240 c14
-27 14 -2465 0 -2492 -12 -22 -68 -27 -88 -7 -9 9 -12 300 -12 1249 0 681 3
1244 6 1253 9 24 80 22 94 -3z m380 0 c7 -13 10 -420 10 -1247 0 -1390 8
-1264 -83 -1264 -33 0 -57 6 -69 17 -17 15 -18 67 -18 1245 0 960 3 1233 12
1248 11 16 24 20 75 20 51 0 64 -3 73 -19z m494 3 c3 -9 6 -573 6 -1254 0
-1215 0 -1239 -19 -1250 -25 -13 -177 -13 -202 0 -19 11 -19 35 -19 1253 0
954 3 1246 12 1255 8 8 48 12 114 12 84 0 103 -3 108 -16z m582 -1 c11 -15 13
-241 14 -1247 0 -1130 -1 -1231 -17 -1248 -14 -16 -33 -18 -145 -18 -71 0
-138 5 -149 10 -19 11 -19 35 -19 1259 0 686 3 1251 7 1254 3 4 71 7 151 7
126 0 147 -2 158 -17z m734 -9 c7 -16 10 -470 10 -1243 0 -1080 -2 -1219 -16
-1239 -15 -21 -20 -22 -228 -22 -151 0 -215 3 -224 12 -17 17 -17 2489 0 2506
9 9 74 12 230 12 l218 0 10 -26z m-1260 -2859 c0 -139 4 -142 94 -55 54 52 68
60 100 60 21 0 36 -4 34 -9 -1 -5 -23 -31 -49 -58 -64 -68 -64 -69 -33 -111
15 -20 31 -39 34 -42 3 -3 20 -25 38 -50 31 -43 32 -45 13 -54 -34 -15 -65 2
-114 64 -27 33 -54 60 -61 60 -28 0 -56 -41 -56 -80 0 -35 -3 -40 -27 -46 -48
-12 -53 8 -53 226 0 108 3 200 7 203 3 4 21 7 40 7 l33 0 0 -115z m350 50 c0
-58 2 -65 19 -65 11 0 23 5 26 10 11 18 105 11 145 -11 54 -30 75 -72 74 -145
0 -47 -6 -68 -23 -93 -45 -63 -138 -88 -202 -55 -28 14 -32 14 -49 -1 -10 -9
-27 -15 -37 -13 -17 3 -18 19 -21 221 l-2 217 35 0 35 0 0 -65z m-1440 22 c26
-13 70 -71 70 -93 0 -7 -8 -14 -17 -16 -27 -6 -53 3 -53 18 0 15 -50 44 -75
44 -33 0 -75 -30 -75 -54 0 -24 39 -47 105 -61 89 -19 132 -67 120 -135 -10
-57 -52 -92 -119 -98 -71 -6 -98 2 -141 39 -25 22 -35 39 -35 60 0 41 37 39
72 -3 24 -30 32 -33 78 -33 52 0 80 18 80 52 0 20 -37 52 -67 58 -112 23 -163
61 -163 119 0 90 124 148 220 103z m198 -34 c3 -32 4 -33 53 -33 34 0 49 -4
49 -13 0 -25 -25 -46 -60 -49 l-35 -3 0 -89 c0 -75 3 -90 18 -97 9 -5 25 -13
34 -17 28 -14 40 -41 23 -52 -31 -20 -88 -11 -122 19 l-33 29 -3 157 c-2 86
-1 163 2 171 4 10 16 14 38 12 29 -3 33 -7 36 -35z m324 -44 c15 -8 26 -8 43
1 12 6 33 10 46 8 l24 -3 3 -156 2 -157 -25 -6 c-13 -3 -34 -1 -44 6 -16 10
-27 10 -54 0 -129 -46 -252 65 -217 196 15 53 32 77 75 103 34 21 114 25 147
8z m419 -12 c41 -27 48 -52 19 -67 -17 -9 -27 -7 -54 9 -40 25 -69 26 -106 4
-55 -32 -65 -96 -24 -150 21 -28 31 -33 65 -33 25 0 52 8 69 20 27 20 28 20
51 1 l24 -19 -20 -22 c-67 -75 -202 -60 -262 29 -31 46 -32 130 -2 178 44 71
169 98 240 50z m1049 8 c16 -8 42 -32 57 -52 38 -50 40 -141 4 -192 -68 -95
-233 -92 -290 4 -28 48 -29 137 -1 182 39 64 159 95 230 58z m169 -20 c32 -36
31 -61 -1 -81 -14 -9 -87 73 -88 99 0 32 54 21 89 -18z m201 26 c0 -5 -18 -33
-41 -62 -22 -30 -72 -96 -111 -147 -38 -51 -79 -97 -90 -103 -23 -12 -48 -5
-48 13 0 11 86 133 133 188 6 8 29 39 50 68 34 45 43 52 73 52 19 0 34 -4 34
-9z m-31 -248 c29 -41 37 -59 28 -65 -28 -18 -56 -7 -87 33 -28 35 -31 43 -22
65 18 37 37 29 81 -33z"/>
<path d="M1973 420 c-54 -23 -67 -118 -22 -166 32 -35 97 -33 133 2 55 55 22
159 -54 169 -19 3 -45 0 -57 -5z"/>
<path d="M898 415 c-31 -17 -53 -74 -43 -113 11 -46 43 -72 89 -72 61 1 88 26
94 88 4 47 2 54 -26 82 -34 33 -70 38 -114 15z"/>
<path d="M2341 416 c-48 -27 -63 -84 -36 -136 19 -36 43 -50 88 -50 53 0 87
37 87 95 0 82 -71 128 -139 91z"/>
</g>
</svg>
